{
  "accessors": [
    {
      "bufferView": 1,
      "componentType": 5126,
      "count": 664,
      "max": [
        4.9275097846984863,
        3.3937599658966064,
        4.3881897926330566
      ],
      "min": [
        -2.2988998889923096,
        -5.3556699752807617,
        0.33618000149726868
      ],
      "type": "VEC3"
    },
    {
      "bufferView": 1,
      "byteOffset": 7968,
      "componentType": 5126,
      "count": 664,
      "max": [
        0.98880773782730103,
        0.9897390604019165,
        0.98030132055282593
      ],
      "min": [
        -0.99766284227371216,
        -0.98267626762390137,
        -1
      ],
      "type": "VEC3"
    },
    {
      "bufferView": 0,
      "componentType": 5125,
      "count": 690,
      "max": [
        663
      ],
      "min": [
        0
      ],
      "type": "SCALAR"
    },
    {
      "bufferView": 1,
      "byteOffset": 15936,
      "componentType": 5126,
      "count": 286,
      "max": [
        3.1689798831939697,
        0.76986998319625854,
        5.000889778137207
      ],
      "min": [
        -0.14053000509738922,
        -3.181380033493042,
        2.6963200569152832
      ],
      "type": "VEC3"
    },
    {
      "bufferView": 1,
      "byteOffset": 19368,
      "componentType": 5126,
      "count": 286,
      "max": [
        0.92115813493728638,
        0.92339009046554565,
        0.9828108549118042
      ],
      "min": [
        -0.94909876585006714,
        -0.87684750556945801,
        -0.19446961581707001
      ],
      "type": "VEC3"
    },
    {
      "bufferView": 0,
      "byteOffset": 2760,
      "componentType": 5125,
      "count": 294,
      "max": [
        285
      ],
      "min": [
        0
      ],
      "type": "SCALAR"
    }
  ],
  "asset": {
    "extras": {
      "author": "Mateusz Sójka (https://sketchfab.com/matsoj)",
      "license": "CC-BY-4.0 (http://creativecommons.org/licenses/by/4.0/)",
      "source": "https://sketchfab.com/models/cafd463503ba4724a7aadff917786cd5",
      "title": "Mountain"
    },
    "generator": "Sketchfab-3.18.7",
    "version": "2.0"
  },
  "bufferViews": [
    {
      "buffer": 0,
      "byteLength": 3936,
      "byteOffset": 0,
      "name": "floatBufferViews",
      "target": 34963
    },
    {
      "buffer": 0,
      "byteLength": 22800,
      "byteOffset": 3936,
      "byteStride": 12,
      "name": "floatBufferViews",
      "target": 34962
    }
  ],
  "buffers": [
    {
      "byteLength": 26736,
      "uri": "scene.bin"
    }
  ],
  "materials": [
    {
      "doubleSided": true,
      "emissiveFactor": [
        0,
        0,
        0
      ],
      "name": "Mountain",
      "pbrMetallicRoughness": {
        "baseColorFactor": [
          0.0549687892,
          0.0549687892,
          0.0549687892,
          1
        ],
        "metallicFactor": 0,
        "roughnessFactor": 0.59999999999999998
      }
    },
    {
      "doubleSided": true,
      "emissiveFactor": [
        0,
        0,
        0
      ],
      "name": "Snow",
      "pbrMetallicRoughness": {
        "baseColorFactor": [
          0.6038155556,
          0.6038155556,
          0.6038155556,
          1
        ],
        "metallicFactor": 0,
        "roughnessFactor": 0.59999999999999998
      }
    }
  ],
  "meshes": [
    {
      "name": "Cube_0",
      "primitives": [
        {
          "attributes": {
            "NORMAL": 1,
            "POSITION": 0
          },
          "indices": 2,
          "material": 0,
          "mode": 4
        }
      ]
    },
    {
      "name": "Cube_1",
      "primitives": [
        {
          "attributes": {
            "NORMAL": 4,
            "POSITION": 3
          },
          "indices": 5,
          "material": 1,
          "mode": 4
        }
      ]
    }
  ],
  "nodes": [
    {
      "children": [
        1
      ],
      "name": "RootNode (gltf orientation matrix)",
      "rotation": [
        -0.70710678118654746,
        -0,
        -0,
        0.70710678118654757
      ]
    },
    {
      "children": [
        2
      ],
      "name": "RootNode (model correction matrix)"
    },
    {
      "children": [
        3,
        6
      ],
      "name": "Root"
    },
    {
      "children": [
        4,
        5
      ],
      "name": "Cube"
    },
    {
      "mesh": 0,
      "name": "Cube_0"
    },
    {
      "mesh": 1,
      "name": "Cube_1"
    },
    {
      "children": [
        7
      ],
      "matrix": [
        0.98294000000000004,
        0,
        -0.18395000000000003,
        0,
        0.024010000000000004,
        0.99143999999999999,
        0.1283,
        0,
        0.18238000000000001,
        -0.13053000000000001,
        0.9745299999999999,
        0,
        5.6886600000000005,
        -5.54352,
        9.8798000000000012,
        1
      ],
      "name": "Sun"
    },
    {
      "name": "Sun"
    }
  ],
  "scene": 0,
  "scenes": [
    {
      "name": "OSG_Scene",
      "nodes": [
        0
      ]
    }
  ]
}

